<svg width="1080" height="1080" viewBox="0 0 1080 1080" fill="none" xmlns="http://www.w3.org/2000/svg"><path d="M1019.88 1032.28l9.35-84.47h-67.17l10.94 84.47h46.88z" fill="#DBA77F" stroke="#DBA77F" stroke-width="4.5" stroke-linecap="round" stroke-linejoin="round"/><path d="M762.74 471.61l-15.37 9c2.08 10.8 11.06 9.68 17.71 6.53a78.067 78.067 0 0 0 10.59-7c-7.02.97-11.02-3.6-12.93-8.53z" fill="#8C4819" stroke="#1F1F1F" stroke-width="4.5" stroke-linecap="round" stroke-linejoin="round"/><path d="M699.35 199.17c16-38.58 52.32-63.54 74-55.43 29.33 11-2.66 76.71-9.75 89.12-7.09 12.41-77.02-2.85-64.25-33.69z" fill="#1F1F1F" stroke="#1F1F1F" stroke-width="4.5" stroke-linecap="round" stroke-linejoin="round"/><path d="M768.77 142.56c-54.39-13.5-147-19.46-237.47 2.51-9.39 2.28-10.64 2.27-18.8 4.55 0 0-5.15 76.6-43.72 89.89-38.57 13.29-78-29.26-79.54-42.21-40 19.62-82 46.54-107.08 86.11-27 42.57-72.17 190.52-70.1 190.47 182.23-3.73 376.44-60.11 417.67-98.69 22.28-20.86 62.4-86.69 94.6-142.86-16.91-6.1-31.4-17.66-25-33.17 14.89-35.95 47.5-60.06 69.44-56.6z" fill="#fff" stroke="#1F1F1F" stroke-width="4.5" stroke-linecap="round" stroke-linejoin="round"/><path d="M777.58 460.51c.51-2.09 7-7.64 14.34-17-9.81 15.43-29.18 28.06-29.18 28.06 2.67 6.89 9.43 13.1 22.82 4.23 3.07-2 6.1-4.25 8.95-6.48-10.46 4.01-17.93-4.74-16.93-8.81z" fill="#8C4819" stroke="#1F1F1F" stroke-width="4.5" stroke-linecap="round" stroke-linejoin="round"/><path d="M843.26 253.52c-30.56-60.09-74.07-86.19-108.93-99.65-13.84 10-27 26-35 45.3-6.26 15.16 7.5 26.56 23.88 32.75 15.94 4.76 30.2 11.12 38.31 19.12 49.88 49.21 56.65 94 51.78 141.44-4.32 42-34.59 63.41-35.72 68-1.13 4.59 8.67 15.33 21.38 6.46 12.71-8.87 42.27-39.52 52.87-66.56 10.6-27.04 15.36-99.84-8.57-146.86z" fill="#8C4819" stroke="#1F1F1F" stroke-width="4.5" stroke-linecap="round" stroke-linejoin="round"/><path d="M676.51 497.46c86.548 0 156.71-70.161 156.71-156.71s-70.162-156.71-156.71-156.71c-86.549 0-156.71 70.161-156.71 156.71s70.161 156.71 156.71 156.71z" fill="#FFDF99" stroke="#FFDF99" stroke-width="4.5" stroke-linecap="round" stroke-linejoin="round"/><path d="M648.02 621.8H337.73c-15.51 0-24.16-12.7-19.22-28.21l57.06-216.79c4.94-15.51 21.68-28.21 37.19-28.21h322.29c15.51 0 24.16 12.7 19.22 28.21l-69.06 216.79c-4.94 15.51-21.68 28.21-37.19 28.21z" fill="#1F1F1F" stroke="#1F1F1F" stroke-width="4.5" stroke-linecap="round" stroke-linejoin="round"/><path d="M735.05 348.59H520a156.81 156.81 0 0 0 64.486 118.951A156.82 156.82 0 0 0 717.56 492.02l36.71-115.22c4.94-15.47-3.71-28.21-19.22-28.21z" fill="#FFBB29" stroke="#1F1F1F" stroke-width="4.5" stroke-linecap="round" stroke-linejoin="round"/><path d="M466.83 388.64c-16.37 0-33.65-13.39-38.4-29.76l-2.16-7.45c-4.08-14.06-18.79-25.46-32.85-25.46H251.83c-16.37 0-25.88 13.39-21.13 29.76l68.55 236.3c4.75 16.37 22 29.77 38.4 29.77h309c16.37 0 25.87-13.4 21.13-29.77l-51.7-177.92c-4.08-14.07-18.79-25.47-32.85-25.47h-116.4z" fill="#C2E7FF" stroke="#C2E7FF" stroke-width="4.5" stroke-linecap="round" stroke-linejoin="round"/><path d="M192.11 458.99v305.94h309.93c0-111.73-32.29-194.2-109.08-255.39-65.69-52.35-131.42-50.55-200.85-50.55z" fill="#fff" stroke="#1F1F1F" stroke-width="4.5" stroke-linecap="round" stroke-linejoin="round"/><path d="M392.96 509.54c-43.59-34.74-87.21-45.63-131.9-49l38.15 131.49c4.75 16.37 22 29.77 38.4 29.77h140.12c-17.61-43.76-45.31-80.82-84.77-112.26z" fill="#4C8DF6" stroke="#1F1F1F" stroke-width="4.5" stroke-linecap="round" stroke-linejoin="round"/><path d="M384.1 286.07l-14.71 39.9M565 184.04l24.29 26.5" stroke="#1F1F1F" stroke-width="4.5" stroke-linecap="round" stroke-linejoin="round"/><path d="M512.5 149.62s-30 8.31-38.84-2.33a69.674 69.674 0 0 1-8.83-14.32 41.103 41.103 0 0 1-17.65 9.24 33.163 33.163 0 0 1-24.75-3.54c-.23 14.23-3.32 30.26-7.29 38.33-5.17 10.52-16 15.33-25.89 20.3 1.51 12.95 41 55.52 79.54 42.21 38.54-13.31 43.71-89.89 43.71-89.89z" fill="#8C4819" stroke="#1F1F1F" stroke-width="4.5" stroke-linecap="round" stroke-linejoin="round"/><path d="M400.95 110.05c3.25 15.4 21.49 38.17 46.22 32.16 24.73-6.01 37.13-32.61 34-55.66-3.13-23.05-19.92-35.92-44.75-32.37-24.83 3.55-42.13 24.38-35.47 55.87z" fill="#8C4819" stroke="#1F1F1F" stroke-width="4.5" stroke-linecap="round" stroke-linejoin="round"/><path d="M67.24 282.97c-20.2-23.52-34.07-39.52-31.73-54.94 3.77-25 72.05 9.16 94.14-10.19 18.37-16.08-4.37-74.64 37.57-95.69 24.31-12.2 91.23 9.46 101.58 4.43 18.22-8.86 10.19-54 35.17-68.91 23.12-13.75 46.4.5 61.48 11.14 15.08 10.64 24.85 8.87 30.17 2.66 5.32-6.21 13.75-21.28 37.69-23.06 23.94-1.78 42.78 11.3 46.88 32.84 1 5.3 1.44 10.6 1.44 10.6s-8-6.63-15.51-13.73c-7.51-7.1-12.64-3.1-19 .89-6.36 3.99-9 7.09-17.85 4-8.85-3.09-14.63-.44-19.06 8.87-4.43 9.31-6.63 26.3-5.32 28.58a42.304 42.304 0 0 1-4-10.4s-4.89-2.48-9.57-1.39c-6 1.4-12.71 6.82-16.43 16.22-3.45 8.75-9.59 33.49-31.87 37.49-26.38 4.72-49.56-15.57-59.88-8.5-18.36 12.58-9.5 61.32-43.32 88.19-38.69 30.74-79.05-25.51-99.54-7.82-5.73 5-6.31 10.54-7 23.47-.83 15.94 2.52 40.65 2.22 54.3-.26 11.3-11 18-23.89 12.79-12.16-4.92-24.78-19.07-44.37-41.84z" fill="#C99069" stroke="#C99069" stroke-width="4.5" stroke-linecap="round" stroke-linejoin="round"/><path d="M298.1 780.24c-7.83-.21-15.78-.52-23.65-2.45-10.8-2.65-19.29-7.1-19.29-12.86h18.41-35.41c0 5.76 8.49 10.21 19.29 12.86 12.86 3.15 32.3 2 44.71 3.1-1.39-.19-2.74-.41-4.07-.65h.01z" fill="#DBA77F"/><path d="M273.57 764.93h-18.41c0 5.76 8.49 10.21 19.29 12.86 7.87 1.93 15.82 2.24 23.65 2.45h-.01c1.33.24 2.68.46 4.07.65-12.41-1.1-31.85.05-44.71-3.1-10.8-2.65-19.29-7.1-19.29-12.86h35.41zm0 0c.154.552.345 1.093.57 1.62M765.029 616.335c6.497-11.254 7.43-22.88 2.083-25.968-5.348-3.087-14.95 3.534-21.448 14.788-6.497 11.254-7.43 22.88-2.082 25.967 5.347 3.088 14.949-3.533 21.447-14.787z" stroke="#1F1F1F" stroke-width="4.5" stroke-linecap="round" stroke-linejoin="round"/><path d="M642.15 981.73l-42.12-143.07s67.26-47.82 191.31-84.1c133.75-39.11 239.92-31.82 252.52 193.26h-81.8l10.95 84.51H709.55l-5.11-88.83-62.29 38.23z" fill="#C4EED0" stroke="#C4EED0" stroke-width="4.5" stroke-linecap="round" stroke-linejoin="round"/><path d="M709.55 1032.28l-9.97-173.46" stroke="#1F1F1F" stroke-width="4.5" stroke-linecap="round" stroke-linejoin="round"/><path d="M873.89 737.4s-16.49 37.55-59.06 46.11c-42.57 8.56-62.39-16.5-62.39-16.5s22.81-10.12 13.89-44c0 0-22.49 6.37-34.67.94-13.47-6-21.94-18-12-37.23 9.94-19.23 21.85-39.71 21.85-39.71l-12.68-6.83c32.29-6.55 41.88-79.54 103.68-50.12 61.8 29.42 47.24 70.88 36.32 84.27-10.92 13.39-21.27 27.15-23 42.62-1.71 15.77 28.06 20.45 28.06 20.45z" fill="#DBA77F" stroke="#1F1F1F" stroke-width="4.5" stroke-linecap="round" stroke-linejoin="round"/><path d="M904.04 628.21c-7.46-12.3-22.58-11.5-22.58-11.5s8.06-17.94 5.65-27.62-11.7-19.76-25.21-19.15c-13.51.61-23.18 9.88-23.18 9.88s-8.89-22.79-18.76-30.49c-9.87-7.7-28.83-5.64-35.08 5.44s-2.62 25.21 4.24 32.67c0 0 1.65 1 10 6.13 10.58 6.57 20.21 11.68 31.55 15.24 7.06 2.22 5.88 9.07-.89 10.82-5.4 1.39-17.86 7.53-25.64 19.42-9.7 14.85-18.43 31.46-25.42 43-6.99 11.54-17.21 7.86-17.12 0 .09-7.86-6.77-18.72-12.89-27.84a30.342 30.342 0 0 0-7.18-7.17c-10.8 17.93-22.17 38.62-24.6 46.49-4 13.11 2.42 25.2 14.72 30.45s28.43.6 34.08-5.65c0 0 42.94-56.86 53.23-67.74 10.29-10.88 25.7-6.35 28.12 2.72 2.42 9.07-3.32 18.45-10.58 25.1-7.26 6.65-10.89 13.91-2.42 32.66 4.47 9.9 9.67 12.51 16.51 17-.5-9.45 1.85-16.64 7.08-25.3 6.45-10.69 18.95-18 34.68-30.45s19.15-31.82 11.69-44.11z" fill="#3C4043" stroke="#1F1F1F" stroke-width="4.5" stroke-linecap="round" stroke-linejoin="round"/><path d="M840.56 645.93l-91.85-43.74" stroke="#1F1F1F" stroke-width="4.5" stroke-linecap="round" stroke-linejoin="round"/><path d="M600.03 838.66s33.8 52.77 48.33 80.21c13.85 26.17 8.81 56.8-6.43 62.78-21.15 8.31-41.9-24.6-55.86-57.19a347.536 347.536 0 0 1-20-64.52l33.96-21.28z" fill="#444746" stroke="#1F1F1F" stroke-width="4.5" stroke-linecap="round" stroke-linejoin="round"/><path d="M348.19 764.92s-18-19.29-23.95-28.6c-5.95-9.31 2.66-13.71 18-6.19 15.34 7.52 223.87 129.81 223.87 129.81l34.14-21.2 48.33 80.21c-20.39 12.9-45 28.2-78.26 24.88-33.26-3.32-69.22-37.91-104.11-69.84-34.89-31.93-72.8-66.51-90.76-75.82-17.96-9.31-78.68-15.29-93.32-17.29-14.64-2-25.93-6.65-28.59-16l94.65.04z" fill="#DBA77F" stroke="#1F1F1F" stroke-width="4.5" stroke-linecap="round" stroke-linejoin="round"/><path d="M973 1032.28l-24.07-197.53 13.69 113.06M337.61 621.8h309c16.37 0 25.87-13.4 21.13-29.77l-51.66-177.92c-4.08-14.07-18.79-25.47-32.85-25.47h-116.4c-16.37 0-33.65-13.39-38.4-29.76l-2.16-7.45c-4.08-14.06-18.79-25.46-32.85-25.46h-91.26M268.83 126.58c18.22-8.86 10.19-54 35.17-68.91 23.12-13.75 46.4.5 61.48 11.14 15.08 10.64 24.85 8.87 30.17 2.66M129.65 217.84c18.37-16.08-4.37-74.64 37.57-95.69 24.31-12.2 91.23 9.46 101.58 4.43M572.39 223.64a156.724 156.724 0 0 1 123.345-38.346 156.713 156.713 0 0 1 110.247 67.305 156.712 156.712 0 0 1-7.306 186.32 156.71 156.71 0 0 1-51.286 41.651M1043.86 947.81h-80.95" stroke="#1F1F1F" stroke-width="4.5" stroke-linecap="round" stroke-linejoin="round"/></svg>