<svg width="1080" height="1080" viewBox="0 0 1080 1080" fill="none" xmlns="http://www.w3.org/2000/svg"><path d="M935.94 824.98C995.827 742.033 1027.98 642.287 1027.81 539.98C1027.81 397.24 966.49 268.83 868.81 179.63L540.08 539.98L935.94 824.98Z" fill="#4C8DF6" stroke="#1F1F1F" stroke-width="4.5" stroke-linecap="round" stroke-linejoin="round"/><path d="M868.76 179.66C778.994 97.541 661.692 52.077 540.03 52.25C474.348 52.1613 409.329 65.3875 348.9 91.1299L540.03 540.01L868.76 179.66Z" fill="#C4EED0" stroke="#1F1F1F" stroke-width="4.5" stroke-linecap="round" stroke-linejoin="round"/><path d="M540.02 540.01L348.88 91.1299C174.49 165.47 52.25 338.47 52.25 540.01C52.25 809.4 270.63 1027.78 540.02 1027.78C703.02 1027.78 847.35 947.78 935.92 824.98L540.02 540.01Z" fill="white" stroke="#1F1F1F" stroke-width="4.5" stroke-linecap="round" stroke-linejoin="round"/><path d="M525.431 583.15C452.591 565.36 417.861 497.59 440.731 464.56C463.601 431.53 539.571 461.3 574.431 502.32L525.431 583.15Z" fill="#1F1F1F" stroke="#1F1F1F" stroke-width="4.5" stroke-linecap="round" stroke-linejoin="round"/><path d="M479.209 451.83C479.209 451.83 426.329 501.83 394.989 712.75L228.119 775.44L313.669 909.27C313.669 909.27 422.939 851.67 469.529 787.27C516.119 722.87 526.149 633.66 526.149 633.66L676.359 914.53L804.959 824.96L574.429 502.3C574.429 502.3 529.369 456.03 479.209 451.83Z" fill="#C2E7FF" stroke="#C2E7FF" stroke-width="4.5" stroke-linecap="round" stroke-linejoin="round"/><path d="M676.36 914.55L504.17 592.55C487.53 556.42 499.17 512.93 499.17 512.93" stroke="#1F1F1F" stroke-width="4.5" stroke-linecap="round" stroke-linejoin="round"/><path d="M676.36 914.55C662.36 888.55 781.81 795.19 804.96 824.98C828.11 854.77 694.43 955.77 676.36 914.55Z" fill="#1F1F1F" stroke="#1F1F1F" stroke-width="4.5" stroke-linecap="round" stroke-linejoin="round"/><path d="M699.35 872.83C699.35 872.83 725.3 924.75 755.25 977.83C755.25 977.83 862.56 921.98 900.86 868.21C873.86 847.97 808.01 919.95 756.36 830.12C756.36 830.14 715.3 853.14 699.35 872.83Z" fill="white" stroke="#1F1F1F" stroke-width="4.5" stroke-linecap="round" stroke-linejoin="round"/><path d="M608.84 335.86L676.34 321.88L688.53 377.24L642.43 427.77L608.84 335.86Z" fill="white" stroke="#1F1F1F" stroke-width="4.5" stroke-linecap="round" stroke-linejoin="round"/><path d="M228.12 775.44C260.02 758.21 340.77 875.11 313.67 909.27C286.57 943.43 200.16 794.35 228.12 775.44Z" fill="#1F1F1F" stroke="#1F1F1F" stroke-width="4.5" stroke-linecap="round" stroke-linejoin="round"/><path d="M301.32 836.66C232.08 881.87 313.46 934.25 294.38 961.49C294.38 961.49 213.77 917.49 162.83 849.27C162.83 849.27 219.22 803.75 261.64 786.62C261.64 786.62 290.03 812.78 301.32 836.66Z" fill="white" stroke="#1F1F1F" stroke-width="4.5" stroke-linecap="round" stroke-linejoin="round"/><path d="M677.381 326.59C715.471 304.16 763.741 265.78 763.741 265.78C775.411 254.11 782.621 234.17 800.691 227.02L831.201 211.78C838.611 209.15 838.261 213.59 835.431 216.78L688.531 377.22L677.381 326.59Z" fill="#DBA77F" stroke="#1F1F1F" stroke-width="4.5" stroke-linecap="round" stroke-linejoin="round"/><path d="M796.49 245.08L817.16 239.91C821.59 238.97 823.16 245.31 818.09 247.71L795.5 259.86" fill="#DBA77F"/><path d="M796.49 245.08L817.16 239.91C821.59 238.97 823.16 245.31 818.09 247.71L795.5 259.86" stroke="#1F1F1F" stroke-width="4.5" stroke-linecap="round" stroke-linejoin="round"/><path d="M509.24 241.51C519.41 242.64 541.24 217.59 563.83 222.11C586.42 226.63 588.68 246.96 603.36 253.36L601.48 272.93C591.69 272.93 580.77 295.93 552.16 291.38C523.55 286.83 523.55 263.52 509.24 262.77V241.51Z" fill="#202124" stroke="#202124" stroke-width="4.5" stroke-linecap="round" stroke-linejoin="round"/><path d="M639.63 368.31L646 334.11C646 334.11 675.63 336.93 676.34 306.44C677.05 275.95 659.27 253.64 638.34 256.75C617.41 259.86 601.86 275.16 608.81 297.01C615.76 318.86 618.41 326.83 598.17 337.24L639.63 368.31Z" fill="#DBA77F" stroke="#1F1F1F" stroke-width="4.5" stroke-linecap="round" stroke-linejoin="round"/><path d="M629.341 293.44C624.541 278.44 643.181 270.29 648.681 288.08C655.761 288.28 662.911 279.84 666.831 270.87C659.831 260.66 649.531 255.08 638.371 256.74C617.481 259.84 601.891 275.15 608.841 297C613.691 312.27 616.441 320.76 610.751 328C610.751 328 635.551 312.93 629.341 293.44Z" fill="#202124" stroke="#202124" stroke-width="4.5" stroke-linecap="round" stroke-linejoin="round"/><path d="M603.361 253.36C610.701 253.78 619.551 257.63 622.361 262.15C616.936 265.159 612.534 269.721 609.721 275.25C607.235 273.735 604.381 272.933 601.471 272.93L603.361 253.36Z" fill="white" stroke="#202124" stroke-width="4.5" stroke-linecap="round" stroke-linejoin="round"/><path d="M509.239 241.51C504.182 241.533 499.131 241.847 494.109 242.45L496.109 264.3C500.47 263.562 504.866 263.051 509.279 262.77L509.239 241.51Z" fill="white" stroke="#202124" stroke-width="4.5" stroke-linecap="round" stroke-linejoin="round"/><path d="M496.07 264.3C485.34 267.48 486.19 290.91 460.49 305.03C434.79 319.15 412.21 292.61 395.83 299.95L387.93 281.59C408.54 271.15 408.26 237.59 430.56 230.21C452.86 222.83 478.97 243.39 494.11 242.45L496.07 264.3Z" fill="#202124" stroke="#202124" stroke-width="4.5" stroke-linecap="round" stroke-linejoin="round"/><path d="M387.93 281.6L376.07 287.81L383.97 305.32L395.83 299.95L387.93 281.6Z" fill="white" stroke="#202124" stroke-width="4.5" stroke-linecap="round" stroke-linejoin="round"/><path d="M383.97 305.31C367.15 318.67 360.09 343.07 342.08 358.03C341.094 358.837 339.94 359.415 338.703 359.723C337.467 360.03 336.177 360.059 334.927 359.807C333.678 359.556 332.5 359.03 331.478 358.268C330.457 357.506 329.617 356.526 329.02 355.4C317.846 334.384 308.881 312.266 302.27 289.4C301.838 287.891 301.794 286.298 302.142 284.768C302.489 283.238 303.217 281.82 304.258 280.645C305.298 279.471 306.619 278.578 308.096 278.049C309.573 277.52 311.16 277.373 312.71 277.62C331.33 280.62 357.26 293.14 376.07 287.83L383.97 305.31Z" fill="#202124" stroke="#202124" stroke-width="4.5" stroke-linecap="round" stroke-linejoin="round"/><path d="M440.76 464.56C491.58 396.79 583.06 323.95 619.49 337.5C655.92 351.05 648.68 450.44 648.68 450.44L619.29 453.19L574.43 502.37C574.43 502.37 541.85 463.79 494.11 453.19C469.81 448.44 452.02 449.59 440.76 464.56Z" fill="white" stroke="#1F1F1F" stroke-width="4.5" stroke-linecap="round" stroke-linejoin="round"/><path d="M619.29 453.14L577.1 458.63L570.33 402.44" fill="white"/><path d="M619.29 453.14L577.1 458.63L570.33 402.44" stroke="#1F1F1F" stroke-width="4.5" stroke-linecap="round" stroke-linejoin="round"/><path d="M804.96 824.98L574.43 502.32" stroke="#1F1F1F" stroke-width="4.5" stroke-linecap="round" stroke-linejoin="round"/><path d="M648.68 450.44L666.32 631L702.47 657C702.937 657.335 703.294 657.801 703.496 658.339C703.697 658.877 703.735 659.463 703.603 660.022C703.471 660.581 703.176 661.089 702.755 661.48C702.335 661.871 701.807 662.129 701.24 662.22C698.013 662.588 694.745 662.191 691.7 661.06C681.12 657.54 647.46 644.31 642.28 642.42C637.1 640.53 631.55 633.42 630.14 619.55C629.14 610 599.5 455.73 599.5 455.73L648.68 450.44Z" fill="#DBA77F" stroke="#1F1F1F" stroke-width="4.5" stroke-linecap="round" stroke-linejoin="round"/></svg>